<?xml version="1.0" encoding="utf-8"?>
<!-- Generator: Adobe Illustrator 23.0.4, SVG Export Plug-In . SVG Version: 6.00 Build 0)  -->
<svg version="1.1" id="Layer_1" xmlns="http://www.w3.org/2000/svg" xmlns:xlink="http://www.w3.org/1999/xlink" x="0px" y="0px"
	 viewBox="0 0 256 256" style="enable-background:new 0 0 256 256;" xml:space="preserve">
<style type="text/css">
	.st0{fill:#4285F4;}
	.st1{fill:#34A853;}
	.st2{fill:#EA4335;}
	.st3{fill:#FBBC05;}
</style>
<circle class="st0" cx="78.1" cy="83.9" r="78.1"/>
<path class="st1" d="M256,91.5c0,8.8-7.1,15.9-15.9,15.9s-15.9-7.1-15.9-15.9s7.1-15.9,15.9-15.9S256,82.7,256,91.5z"/>
<path class="st2" d="M227.4,130.2c0,17.5-14.2,31.8-31.8,31.8c-17.5,0-31.8-14.2-31.8-31.8c0-17.5,14.2-31.8,31.8-31.8
	C213.2,98.5,227.4,112.7,227.4,130.2z"/>
<path class="st3" d="M233.8,212.2c0,21.1-17.1,38.1-38.1,38.1s-38.1-17.1-38.1-38.1s17.1-38.1,38.1-38.1
	C216.7,174.1,233.8,191.1,233.8,212.2z"/>
</svg>
