<svg version="1.1" xmlns="http://www.w3.org/2000/svg" viewBox="0 0 256 256">
    <circle fill="#4285f4" cx="78.1" cy="83.9" r="78.1" />
    <path fill="#34a853" d="M256,91.5c0,8.8-7.1,15.9-15.9,15.9s-15.9-7.1-15.9-15.9c0-8.8,7.1-15.9,15.9-15.9S256,82.7,256,91.5z" />
    <path fill="#ea4335" d="M227.4,130.2c0,17.5-14.2,31.8-31.8,31.8c-17.5,0-31.8-14.2-31.8-31.8c0-17.5,14.2-31.8,31.8-31.8 C213.2,98.5,227.4,112.7,227.4,130.2z" />
    <path fill="#fbbc05" d="M233.8,212.2c0,21.1-17.1,38.1-38.1,38.1s-38.1-17.1-38.1-38.1c0-21,17.1-38.1,38.1-38.1 C216.7,174.1,233.8,191.1,233.8,212.2z" />
</svg>